HIERARCHY
ROOT Hips
{
	OFFSET -3.958830 18.904000 13.208200
	CHANNELS 6 Xposition Yposition Zposition Zrotation Yrotation Xrotation 
	JOINT LHipJoint
	{
		OFFSET 0.000000 0.000000 0.000000
		CHANNELS 3 Zrotation Yrotation Xrotation
		JOINT LeftUpLeg
		{
			OFFSET 1.800000 -1.400000 0.085000
			CHANNELS 3 Zrotation Yrotation Xrotation
			JOINT LeftLeg
			{
				OFFSET 2.215000 -6.000000 0.000000
				CHANNELS 3 Zrotation Yrotation Xrotation
				JOINT LeftFoot
				{
					OFFSET 2.500000 -6.900000 0.000000
					CHANNELS 3 Zrotation Yrotation Xrotation
					JOINT LeftToeBase
					{
						OFFSET 0.200000 -0.500000 1.950000
						CHANNELS 3 Zrotation Yrotation Xrotation
						End Site
						{
							OFFSET 0.000000 0.000000 0.000000
						}
					}
				}
			}
		}
	}
	JOINT RHipJoint
	{
		OFFSET 0.000000 0.000000 0.000000
		CHANNELS 3 Zrotation Yrotation Xrotation
		JOINT RightUpLeg
		{
			OFFSET -1.800000 -1.400000 0.085000
			CHANNELS 3 Zrotation Yrotation Xrotation
			JOINT RightLeg
			{
				OFFSET -2.215000 -6.000000 0.000000
				CHANNELS 3 Zrotation Yrotation Xrotation
				JOINT RightFoot
				{
					OFFSET -2.500000 -6.900000 0.000000
					CHANNELS 3 Zrotation Yrotation Xrotation
					JOINT RightToeBase
					{
						OFFSET -0.200000 -0.500000 1.950000
						CHANNELS 3 Zrotation Yrotation Xrotation
						End Site
						{
							OFFSET 0.000000 0.000000 0.000000
						}
					}
				}
			}
		}
	}
	JOINT LowerBack
	{
		OFFSET 0.000000 0.000000 0.000000
		CHANNELS 3 Zrotation Yrotation Xrotation
		JOINT Spine
		{
			OFFSET -0.087000 1.940000 -0.288900
			CHANNELS 3 Zrotation Yrotation Xrotation
			JOINT Spine1
			{
				OFFSET 0.000000 1.950000 0.060000
				CHANNELS 3 Zrotation Yrotation Xrotation
				JOINT Neck
				{
					OFFSET 0.000000 0.000000 0.000000
					CHANNELS 3 Zrotation Yrotation Xrotation
					JOINT Neck1
					{
						OFFSET 0.000000 1.600000 0.340000
						CHANNELS 3 Zrotation Yrotation Xrotation
						JOINT Head
						{
							OFFSET 0.000000 1.667000 -0.240000
							CHANNELS 3 Zrotation Yrotation Xrotation
							End Site
							{
								OFFSET 0.000000 0.000000 0.000000
							}
						}
					}
				}
				JOINT LeftShoulder
				{
					OFFSET 0.000000 0.000000 0.000000
					CHANNELS 3 Zrotation Yrotation Xrotation
					JOINT LeftArm
					{
						OFFSET 2.700000 1.550000 -0.730000
						CHANNELS 3 Zrotation Yrotation Xrotation
						JOINT LeftForeArm
						{
							OFFSET 5.450000 0.000000 0.000000
							CHANNELS 3 Zrotation Yrotation Xrotation
							JOINT LeftHand
							{
								OFFSET 3.450000 0.000000 0.000000
								CHANNELS 3 Zrotation Yrotation Xrotation
								JOINT LeftHandIndex1
								{
									OFFSET 0.750000 0.000000 0.000000
									CHANNELS 3 Zrotation Yrotation Xrotation
									End Site
									{
										OFFSET 0.000000 0.000000 0.000000
									}
								}
							}
						}
					}
				}
				JOINT RightShoulder
				{
					OFFSET 0.000000 0.000000 0.000000
					CHANNELS 3 Zrotation Yrotation Xrotation
					JOINT RightArm
					{
						OFFSET -2.700000 1.550000 -0.730000
						CHANNELS 3 Zrotation Yrotation Xrotation
						JOINT RightForeArm
						{
							OFFSET -5.450000 0.000000 0.000000
							CHANNELS 3 Zrotation Yrotation Xrotation
							JOINT RightHand
							{
								OFFSET -3.450000 0.000000 0.000000
								CHANNELS 3 Zrotation Yrotation Xrotation
								JOINT RightHandIndex1
								{
									OFFSET -0.750000 0.000000 0.000000
									CHANNELS 3 Zrotation Yrotation Xrotation
									End Site
									{
										OFFSET 0.000000 0.000000 0.000000
									}
								}
							}
						}
					}
				}
			}
		}
	}
}
MOTION
Frames: 8
Frame Time: 0.016667
-0.362170 16.419960 8.626440 7.546239 31.574834 -19.982180 -14.556352 10.636007 2.645912 -10.602190 -1.283000 -1.335121 0.642326 4.941052 24.501554 0.126256 4.777904 3.070440 -0.277610 -0.240630 -0.769740 19.188903 -13.499601 1.901828 -7.695541 -2.061335 3.985430 -8.556231 -4.009600 27.366538 -0.375880 -6.120708 2.299737 0.068780 0.707320 0.018080 -7.303584 6.636607 -7.939244 31.193241 9.025385 23.012921 5.601308 6.576457 36.662915 -1.849402 2.135129 -12.173320 3.573161 -24.394433 33.345354 10.326600 -32.219260 -2.725300 22.811538 -29.360677 -0.310743 52.330432 -21.043278 -18.382008 56.163624 -9.812710 -7.241711 -4.460020 3.410302 -0.275860 0.221430 -0.442400 0.218600 -16.454006 37.880320 17.281079 -47.172373 33.297701 -31.467720 -70.006716 -10.439789 -1.888447 3.478946 -1.691055 -0.159260 0.363850 0.390010 0.417450 
-0.327100 16.352740 8.610780 6.848607 30.954847 -21.365290 -14.582950 10.685014 2.651245 -10.515526 -1.438436 -1.604024 1.305195 4.986490 26.687595 0.153980 5.024873 2.964641 -0.245870 -0.192230 -0.771430 19.150374 -13.433406 2.030062 -6.667153 -2.061217 5.267677 -8.576092 -3.925873 26.800026 -0.401998 -6.161654 2.285987 0.108860 0.708730 0.036530 -7.189687 6.552346 -7.903222 31.880888 9.338405 24.279747 7.649534 6.282740 35.744417 -2.248800 2.393036 -11.795530 4.611861 -25.506229 30.387313 11.196580 -32.653370 -4.619410 23.586835 -27.750854 -0.820833 53.944352 -16.729365 -17.148934 60.800011 -11.863118 -8.267435 -4.523214 3.464106 -0.283650 0.226520 -0.436080 0.227280 -16.617708 36.852968 16.959257 -48.178007 32.510040 -32.187821 -73.714361 -12.413821 -0.446315 3.516251 -1.720050 -0.148580 0.362270 0.383180 0.430390 
-0.276570 16.287810 8.588670 6.225982 29.366277 -22.305788 -14.575658 10.757486 2.707302 -10.681220 -1.624291 -2.127564 1.956950 5.007702 28.634965 0.222069 5.255555 2.888295 -0.301210 -0.230740 -0.874760 19.133058 -13.389131 2.133703 -5.587115 -1.984935 5.841251 -9.194720 -3.611532 27.002898 -0.383794 -6.202959 2.291726 0.095710 0.783970 0.033930 -7.056818 6.406791 -7.836362 32.541436 9.883048 25.268658 10.231138 6.276673 34.791328 -3.272881 2.519092 -11.500735 5.049797 -25.532639 28.283894 13.606740 -33.333160 -5.019230 25.955310 -25.804789 -1.541726 52.868512 -13.931179 -16.223422 66.330579 -11.422429 -8.830094 -4.683376 3.550756 -0.324570 0.252050 -0.479150 0.249970 -17.314618 35.603795 17.157486 -49.297877 31.393558 -32.498135 -77.613655 -14.216713 1.469678 3.558198 -1.712197 -0.160830 0.376070 0.418150 0.480070 
-0.252090 16.223480 8.581160 5.258656 29.004354 -23.761334 -14.597230 10.866753 2.718390 -10.554919 -1.697013 -2.001438 3.109156 4.823063 30.434835 0.312757 5.490527 2.816936 -0.358810 -0.298900 -0.935860 19.090267 -13.340923 2.196482 -5.049395 -1.996095 6.600792 -8.574264 -3.904131 28.209854 -0.394961 -6.374626 2.242461 0.046490 0.816840 0.051820 -6.955881 6.235954 -7.824201 33.749095 9.706016 26.235389 11.335231 5.904711 33.841556 -3.789617 2.520518 -11.544483 5.231437 -26.625384 26.697022 13.937750 -34.664460 -4.288260 27.882472 -25.201099 -1.555976 51.253533 -11.186418 -15.835506 70.985864 -9.809000 -8.748053 -4.874413 3.627934 -0.357140 0.270430 -0.504410 0.253150 -18.432716 35.367189 17.466575 -49.632531 28.844937 -31.536254 -81.077122 -17.260883 4.144068 3.681424 -1.732773 -0.151600 0.350200 0.443790 0.507920 
-0.214930 16.162630 8.572330 4.499057 29.210292 -24.558901 -14.620512 10.948492 2.720391 -10.452134 -1.746008 -1.986859 3.993839 4.649072 31.861198 0.387112 5.688571 2.760973 -0.397510 -0.331980 -1.005700 19.048354 -13.372101 2.134386 -5.774606 -1.872681 6.113567 -7.170144 -4.574641 30.527921 -0.383294 -6.615318 2.159993 0.027790 0.863150 0.069050 -6.895057 6.185914 -7.796538 34.769510 9.583444 26.368465 11.708659 5.584655 32.992891 -4.178787 2.679883 -11.548602 5.999479 -28.402085 24.283046 14.253680 -36.380820 -4.051840 30.119152 -24.676710 -1.706683 50.613467 -10.494020 -16.337109 74.697765 -5.109498 -7.154928 -5.045457 3.701409 -0.414270 0.297260 -0.540910 0.268900 -20.059839 35.194531 17.524233 -49.047834 25.956625 -29.698350 -85.154880 -21.539354 7.778954 3.843480 -1.801536 -0.137260 0.336620 0.466220 0.551150 
-0.178500 16.120370 8.573730 3.820376 28.524599 -25.082072 -14.616952 10.986797 2.690181 -10.009823 -1.609987 -2.075563 4.160334 4.738463 32.708052 0.421868 5.788153 2.734033 -0.358750 -0.258950 -1.030960 19.029316 -13.451460 2.122110 -6.228588 -1.650035 5.566543 -6.095584 -5.041423 32.444611 -0.402716 -6.806664 2.092504 0.072040 0.872850 0.062480 -6.832317 6.298827 -7.757312 36.111136 10.256886 26.528901 13.450935 6.041891 32.026845 -4.538270 2.468675 -11.372636 6.663877 -31.147994 21.292748 15.277460 -38.496810 -6.458410 31.745211 -22.580840 -2.756211 49.424226 -10.118452 -16.042461 78.862705 -2.775018 -6.564158 -5.133244 3.786721 -0.453200 0.290610 -0.552180 0.295940 -21.090098 34.528907 17.069384 -47.736277 24.102580 -28.794351 -90.334494 -21.845921 9.703991 3.879547 -1.853964 -0.110440 0.354730 0.450160 0.590540 
-0.165900 16.067860 8.590600 3.439476 28.646214 -25.966075 -14.669574 11.124916 2.680691 -9.548291 -1.558792 -1.759432 4.330407 4.875778 34.094475 0.453372 5.999409 2.657996 -0.237030 -0.117940 -0.920020 18.956582 -13.410750 2.095011 -6.784439 -1.552079 5.819464 -5.295006 -5.549079 34.314710 -0.488376 -7.024624 1.990957 0.151100 0.792420 0.067130 -6.651174 6.039875 -7.717605 36.461113 9.833663 27.130904 12.863704 5.593372 31.406574 -4.255522 2.020822 -11.260310 7.297170 -33.915647 18.107267 13.290650 -39.156600 -8.366610 31.907907 -22.543557 -2.581838 51.210106 -8.686025 -16.143518 80.698636 -0.041336 -5.181713 -5.145538 3.811086 -0.458830 0.261920 -0.514950 0.299230 -21.915834 35.287281 16.664633 -47.519383 21.953495 -28.225053 -94.935644 -23.265188 12.109676 3.922812 -1.935125 -0.063840 0.349750 0.386260 0.568280 
-0.151490 16.025430 8.617870 2.606749 28.632036 -27.754875 -14.717581 11.287334 2.657821 -9.027985 -1.357279 -0.369061 4.908786 4.776639 34.839588 0.514749 6.133101 2.623082 -0.144040 -0.013820 -0.795790 18.900540 -13.294934 2.102579 -6.952025 -1.650036 6.978742 -4.204231 -6.357989 36.135490 -0.608320 -7.319385 1.882365 0.187750 0.691520 0.067180 -6.493695 5.634598 -7.670643 37.007599 9.265870 27.301337 12.888320 4.283562 31.439731 -4.109113 1.701422 -11.211501 7.283094 -36.009542 16.771818 9.468960 -39.352170 -7.710180 33.195846 -23.764487 -1.779626 52.216197 -8.580589 -16.885789 81.808558 3.636047 -3.545617 -5.215804 3.811596 -0.462970 0.238900 -0.469340 0.289570 -23.604509 36.478527 16.777730 -46.765837 18.941540 -26.515487 -98.287339 -26.109963 15.057042 4.037221 -2.047429 -0.012750 0.317150 0.310260 0.531090 
